<svg version="1.1" xmlns="http://www.w3.org/2000/svg" xmlns:xlink="http://www.w3.org/1999/xlink" x="0px" y="0px" viewBox="0 0 622.9 623.5" xml:space="preserve" class="fill-current"><g><path d="M492.5,271.6c-1.1-4.5-6.9-8.2-10.5-7.9c-7.2,0.5-9.7-2.3-8-9.3c1.6-7,3.5-13.9,4.8-20.9c2.5-14.1,4.1-28.3,7.1-42.3
        c2.3-11.1,4-21.9,0.7-33c-3.9-13.4-6.9-27.1-11.5-40.3c-4.9-14.1-13.4-26.3-23.2-37.6c-1.2-1.4-3.2-2.3-4.9-3.2
        c-5.2-2.5-11.6-3.8-15.6-7.5c-5.9-5.5-10.7-12.2-13.9-20.2c-5-12.3-12.8-23-27.1-25.7c-9.1-1.7-18.5-1.6-27.7-2.9
        c-13.4-2-26.7-4.6-40.1-6.9c-4.7-0.8-9.4-2-14.1-2.3c-11-0.7-21.6,0.9-32.4,3.2c-19,4.1-37.1,10.2-52.6,21.6
        c-22.4,16.4-44,33.9-65.6,51.4c-4.9,4-9.2,9.2-12.6,14.6c-8.4,13.5-10.1,29.2-11.7,44.5c-3,29.5,0.3,58.8,5.4,87.9
        c1.3,7.5,2.3,15.1,3.4,22.7c0.6,4.5-1.7,6.3-5.8,6.9c-8.9,1.2-13.3,5.4-15.1,14.1c-1.9,9-3.4,18-5.4,26.9
        c-2.9,12.8-2,25.6,0.9,38.1c5.1,22.3,17.1,41.4,30.1,59.8c3.5,5,7.7,6.7,13.8,5.4c6.3-1.3,8.2,0.5,9.3,7c1.1,6.4,2.1,12.9,3.9,19
        c6.1,20.4,17.4,38,30.3,54.7c11.3,14.5,23,28.8,37.6,39.9c8.8,6.7,9.6,7.5,2.3,6.5c-4.8-0.6-3.7,8.9-3.7,13.6
        c-0.1,18.9,0,37.8,4,56.1c0.3,1.4,0.8,2.3,2.8,3c0.3,0,1.3,0,2.8-0.3c0.9-0.2,1.5-0.2,2.1-0.3c3.9-0.6,6.1-0.2,13.5-3.3
        c0.5-0.2,1-0.3,1.4-0.5c9.2-4,17.3-7.1,24.7-13.1c3.4-2.8,6.9-6,10.1-8.6c0.9,3.5,4.5,4.6,6.5,4.5c1.2,0,3,0.1,4.8-0.8
        c2.4-1.2,2.6-3.5,2.6-4.1c0.2,1.9,5.9,7.8,9.6,10.4c5.1,3.7,10.4,7.2,15.9,10.2c4.1,2.3,8,3.5,13.1,5.4c0,0,0.2,0.2,5,1.3
        c0.8,0.2,1.4,0.4,1.4,0.4s0.6,0.2,0.6,0.2c0.1,0,0.5,0.2,0.5,0.2s10.3,3.8,13.3,1.6c2.6-1.9,3.3-14.3,3.9-17.5
        c0.2-1.3,0.3-1.8,0.3-1.8c0.3-2.5,0.2-2.3,0.6-4c0.7-3.6,1-7.3,0.9-10.9c-0.1-10.6-0.3-21.3-0.8-31.9c-0.1-2.3-0.1-5.7-4.3-5.3
        c-0.5,0-1.7-1.9-1.5-2.4c1.5-3.2,3-6.6,5.2-9.4c3.6-4.7,7.7-9.2,11.7-13.6c13.2-14.7,27.5-28.4,36.1-46.7
        c8.1-17.4,15.9-34.8,18.8-53.9c1.2-7.8,2.8-8.6,10.5-7.5c2.8,0.4,7-0.3,8.6-2.2c5.7-6.8,11-14.1,15.6-21.6
        c3.6-5.7,7.1-11.9,8.6-18.3c1.6-7.1,3.4-13.8,7.3-20c1.1-1.8,1.8-3.9,2.3-6C504.6,315.5,497.9,293.6,492.5,271.6z M476.3,163.1
        c3.9,2.2,4.7,7.6,2.8,12.4c-0.7,1.7-0.4,4-0.4,6c0.1,3,0.3,6,0.5,9.3c-5.1-0.4-6.1-3.1-5.8-6.2c0.6-6.7-2.5-12-6.4-17.8
        C469.8,164.5,471.8,160.5,476.3,163.1z M460.4,150.9c-0.4-0.6-2.2-2.4-1.9-2.8c2.2-3,4.7-5.6,7.2-8.4c1.2,1.6,3.2,3,3.5,4.7
        C469.8,147.8,465.6,151.1,460.4,150.9z M467.6,129.7c0.4,0.7-1.1,3.1-2.3,4.2c-2.6,2.5-5.5,4.9-9.5,2.1c-2.4-1.7-3-3.4-0.8-5.6
        c2-2.1,4.2-4,6.7-6.5C464.1,126,466.3,127.6,467.6,129.7z M454.5,114c1.7-0.1,3.6,2.1,5.3,3.3c-2,1.4-3.7,3.4-5.9,4
        c-2.6,0.7-5.5,0.2-9.3,0.2c0.4-1.8,0.8-3.8,1.3-6.1c-2.1-0.3-4-0.5-5.9-0.8c0.2-4.4,4.7-9.2,8.4-8.8c0.9,0.1,2.3,2.6,2.1,3.6
        C449.9,113.1,450.5,114.3,454.5,114z M360.8,69.7c7.5,4.1,11.2,10.7,13.3,19.1c-4.3-1.9-8-3.4-12.8-5.5c0.6,5.5,0.9,9.1,1.2,11.9
        c-5.2-1-10.3-1.3-14.7-3.2c-4-1.7-7.2-5.2-10.8-7.9c-2.2-1.6-4.6-3-7.8-5.1c-0.2,2.6-0.3,3.1-0.3,3.6c0,2,0.1,4,0.1,5.9
        c-2.6,0-5.4,0.7-7.7-0.2c-3.3-1.2-6.1-3.7-8.8,1.1c-0.4,0.7-4.1,0.4-5.6-0.5c-3.8-2.3-7.2-5.2-11.5-7.2c1.8,4.4,3.5,8.9,5.3,13.3
        c-0.6,0.3-1.1,0.7-1.7,1c-2.3-1.2-4.5-2.3-6.8-3.5l-1.1,0.7c1.5,2.9,3,5.7,4.5,8.6c-0.3,0.3-0.5,0.7-0.8,1
        c-3.3-2.5-6.6-4.9-9.8-7.5c-1.9-1.6-3.5-3.6-5.5-5.1c-1.5-1.1-3.4-1.7-5.1-2.6c-0.5,2-1.3,4-1.4,6c-0.1,2.7,0.5,5.4,0.7,7.8
        C261.7,95.2,250,89,237.2,82.2c2.5-1.1,4.1-1.9,5.8-2.5c6.1-2.1,12.5-1.9,18.8-2.3c10.9-0.8,21.7-2.8,32.6-4.3
        c8.7-1.2,17.3-2.9,26-3.7c4.6-0.4,9.4,0.9,14.1,1c4.8,0.1,10.1,0.7,14.4-0.9C353.4,67.8,356.9,67.6,360.8,69.7z M286.9,33.5
        c0.6-1.4,2.9-2.9,4.5-2.9c4.5,0,7.2-1.2,6.2-6.5c1-0.2,1.9-0.6,2.5-0.3c5.6,2.8,11.1,1.8,17,0.9c3.3-0.5,7.3,2.4,10.8,4.2
        c7.2,3.6,12,9.8,16.1,16.5c0.9,1.5,0.9,3.6,1.6,6.8c-7.6-4.3-9.5-12.6-18.1-15.3c1.5,3.5,2.5,5.9,3.8,9c-12.2-0.2-21-5.7-28.4-14.2
        c-0.4,0.4-0.8,0.8-1.2,1.2L313,50.4c-8,2.1-13.4-0.7-18.2-4.9c-2.4-2-4.7-4.3-6.5-6.8C287.3,37.3,286.4,34.8,286.9,33.5z
        M262.9,44.4c2-4.8,7.7-7.5,12.5-5.2c6.2,2.9,12.1,6.6,17.7,10.5c3,2.1,5.1,5.5,7.6,8.3c-0.5,0.5-0.9,0.9-1.4,1.4
        c-2.9-2-5.8-4-8.8-5.9c-2.7-1.8-4.7-2.1-6.9,1.3c-2.6,4-7,3.1-10.7,1.5c-1.9-0.8-3.5-2.4-5.2-3.8C265.2,50.4,261,48.9,262.9,44.4z
        M240.4,58.7c5.1-1,10.4-1.3,15.6-2.1c6.4-1,9.6,0.5,12.4,6c-5.8,1.2-11.4,2.5-17.1,3.4c-4.2,0.7-8.5,2.5-12.5-0.7
        c-1.2-0.9-2-2.3-3-3.5C237.3,60.8,238.7,59.1,240.4,58.7z M221.6,86.4c2.1-1.3,5.5-2,7.6-1.2c5.9,2.2,11.5,5.2,17.1,8.1
        c1.3,0.6,2.1,2.2,3.1,3.4c-8.8,5.3-29.5,2.1-34.3-3.6C217.3,90.7,219,87.9,221.6,86.4z M209.2,96.1c7.2,4.5,14.5,8.7,21.7,13.3
        c1.4,0.9,2.2,2.9,3.3,4.3c-0.6,0.4-1.1,0.8-1.7,1.1c-1.8-1.1-3.5-2.1-5.3-3.2c-3.9,7.9-3.9,8.2-12.9,5.3c-4.3-1.4-8.5-3.3-12.2-5.8
        c-3.1-2.1-2.7-4.7,1.4-6c1.8-0.6,3.3-1.7,5-2.5c0-0.5,0-1,0-1.5c-3.1-1.2-6.1-2.3-9.5-3.6C202.2,93.7,205.5,93.8,209.2,96.1z
        M199.8,149.9c4.7-1.8,9.1-4.9,13.2-7.9c6.1-4.5,5.6-10.7-0.7-15.1c-1.3-0.9-2.5-2-3.7-2.9c0.4-0.7,0.7-1.3,1.1-2
        c2.3,1.3,4.6,2.4,6.7,3.9c2,1.4,3.5,3.8,5.7,4.8c2.7,1.3,6.2,3,8.8,2.3c9.4-2.5,18.7-1.5,28.2-0.9c7.4,0.5,14.9-1.3,22.4-1.1
        c8,0.1,16.1,1,24.1,2.2c4.2,0.6,6.7-1.2,5.8-5.8c-0.7-3.7-1.8-7.3-2.7-11c0.4-0.2,0.8-0.5,1.2-0.7c1.4,1.7,3.4,3.1,4,5
        c2.1,7.3,7.9,11.3,14.3,12.7c7,1.5,14.5,0.8,21.8,0.6c1.3,0,2.8-2.5,3.6-4.2c0.8-1.7,1-3.8,1.7-7c2.4,4.3,4.2,7.6,5.5,9.9
        c5.5-1.3,10.2-2.3,14.9-3.5c1.1-0.3,2.4-0.6,3-1.4c2.2-2.6,3.9-2,6.3-0.2c1.3,0.9,3.8,1.3,5.3,0.7c8.3-3.5,16.6-7,24.5-11.2
        c10.6-5.6,15-18.9,9.8-29.2c-1.5-3-4.2-5.5-6.9-7.5c-2.7-2.1-6-3.3-9.8-5.2c-0.4,3-0.8,6-1.5,10.7c-4.4-3.7-7.8-6.6-12.5-10.5
        c1.3,4.6,2.2,7.9,2.9,10.3c-5-1.3-9.8-2.2-14.4-3.8c-2-0.7-3.7-2.7-5.3-4.3c-3.5-3.6-6.9-7.3-10.3-10.9c0.3-0.5,0.6-1,0.9-1.5
        c1.9,0.1,3.8,0.4,5.6,0.2c1.2-0.1,2.3-0.9,3.4-1.4c-0.6-1.1-0.9-2.5-1.8-3.2c-4-3.3-8.2-6.3-12.1-9.6c-1.4-1.1-2.3-2.8-3.4-4.3
        c0.4-0.5,0.8-1,1.2-1.6c2.3,1.3,4.7,2.3,6.8,3.8c5.3,3.7,10.3,7.9,15.8,11.4c2.5,1.5,5.8,2,8.9,2.3c2.6,0.3,4.1-1.1,4.4-4.1
        c0.5-4.8,8.2-10.4,12.8-9.5c0.9,0.2,1.8,1.4,2.3,2.3c1.7,3.2,3.2,6.6,5,9.7c1.1,1.8,2.5,3.7,4.3,4.6c4.9,2.5,7.2,6.7,8.8,11.6
        c1.1,3.5,2.3,6.9,3.7,10.3c1.2,2.8,2.8,4.6,6,2.1c1.9-1.4,10.7-0.1,12,1.9c0.6,0.9,0.4,3.1-0.3,3.8c-2.5,2.3-5.4,4.2-8.2,6.2
        c-6.2,4.4-12.8,8.4-18.4,13.4c-5.7,5.2-5.7,9.8-1.2,15.9c5.9,8.2,12,16.3,18.3,24.3c3.3,4.3,8.2,5.2,14,3.1c3.9-1.4,7.8-3,11.8-4
        c1.7-0.4,3.8,0.4,5.7,0.6c0.1,0.7,0.1,1.3,0.2,2c-2.6,0.8-5.1,1.6-7.7,2.3c-1.3,0.3-2.7,0.1-4,0.5c-12,3.5-14.5,5.7-7.3,16.5
        c7.3,10.9,9,22.6,6,35.2c-2,8.4-2.9,17-4.8,25.3c-0.3,1.5-2.8,3.6-4.3,3.6c-14.3,0.1-28.7,0.7-42.9-0.8
        c-11.1-1.2-21.9-0.7-32.7,0.5c-9.3,1.1-18.4,3.3-27.6,4.7c-5.6,0.9-11.4,0.8-16.7,2.3c-20.6,5.6-40.3,0.9-60.1-4.1
        c-18.6-4.7-37.4-5.8-56.4-4.7c-13.6,0.8-27.2,2.1-40.8,3.1c-0.6,0-1.3-0.1-3-0.3c0.9-10.9,1.1-21.9,2.8-32.6
        c1.9-12.1,5-24.1,7.8-36.1C184.1,162.3,189.1,154,199.8,149.9z M447.5,251.5c-1.9,0-7.2-0.4-8.5-2c-1.5-1.8,1.1-1.6,2.6-1.6
        c1.9,0,7.2,0.4,8.5,2C451.5,251.7,449,251.5,447.5,251.5z M187.8,253.8c-1.5,1.7-6.5,1.9-8.6,1.9c-1.6,0-4,0.1-2.6-1.6
        c1.5-1.7,6.5-1.9,8.6-1.9C186.8,252.2,189.3,252.1,187.8,253.8z M166.7,185.3c-1.2-3.6,3.5-18.3,7.5-22.4
        C174.9,169.7,170.5,182.7,166.7,185.3z M159.8,135.2c-1-0.7-2.2-2.2-2-2.9c0.4-1.2,1.8-2.7,2.9-2.8c5-0.7,10.1-0.9,16.1-1.4
        C171.5,136.7,165.3,139.1,159.8,135.2z M167.3,107.6c-0.4,5.5-4.3,8-8.9,7.4c-0.3-0.5-0.5-1-0.8-1.5
        C160.8,111.5,164,109.6,167.3,107.6z M251,545.2c4,0,4,6.2,0,6.2C247,551.4,247,545.2,251,545.2z M251,556.9c4,0,4,6.2,0,6.2
        C247,563.1,247,556.9,251,556.9z M251,568.6c4,0,4,6.2,0,6.2C247,574.8,247,568.6,251,568.6z M251.7,579.6c4,0,4,6.2,0,6.2
        C247.7,585.8,247.7,579.6,251.7,579.6z M253.3,600.1c-4,0-4-6.2,0-6.2C257.3,593.9,257.3,600.1,253.3,600.1z M261.7,550.2
        c4,0,4,6.2,0,6.2C257.7,556.4,257.7,550.2,261.7,550.2z M262.7,570.8c-4,0-4-6.2,0-6.2C266.7,564.6,266.7,570.8,262.7,570.8z
        M262.7,576.2c4,0,4,6.2,0,6.2C258.7,582.4,258.7,576.2,262.7,576.2z M264.3,595.8c-4,0-4-6.2,0-6.2
        C268.3,589.6,268.3,595.8,264.3,595.8z M275,556.2c4,0,4,6.2,0,6.2C271,562.4,271,556.2,275,556.2z M276.3,590.8c-4,0-4-6.2,0-6.2
        C280.3,584.6,280.3,590.8,276.3,590.8z M276.3,575.1c-4,0-4-6.2,0-6.2C280.3,568.9,280.3,575.1,276.3,575.1z M288.7,582.1
        c-4,0-4-6.2,0-6.2C292.7,575.9,292.7,582.1,288.7,582.1z M288.7,566.8c-4,0-4-6.2,0-6.2C292.7,560.6,292.7,566.8,288.7,566.8z
        M303,577.8c-4,0-4-6.2,0-6.2C307,571.6,307,577.8,303,577.8z M304,566.8c-4,0-4-6.2,0-6.2C308,560.6,308,566.8,304,566.8z
        M311,577.8c-4,0-4-6.2,0-6.2C315,571.6,315,577.8,311,577.8z M312,566.8c-4,0-4-6.2,0-6.2C316,560.6,316,566.8,312,566.8z
        M326,578.8c-4,0-4-6.2,0-6.2C330,572.6,330,578.8,326,578.8z M326.3,566.8c-4,0-4-6.2,0-6.2C330.3,560.6,330.3,566.8,326.3,566.8z
        M338.3,592.4c-4,0-4-6.2,0-6.2C342.3,586.2,342.3,592.4,338.3,592.4z M341.7,576.8c-4,0-4-6.2,0-6.2
        C345.7,570.6,345.7,576.8,341.7,576.8z M342.7,561.1c-4,0-4-6.2,0-6.2C346.7,554.9,346.7,561.1,342.7,561.1z M352,600.1
        c-4,0-4-6.2,0-6.2C356,593.9,356,600.1,352,600.1z M356,585.1c-4,0-4-6.2,0-6.2C360,578.9,360,585.1,356,585.1z M355.3,566.2
        c4,0,4,6.2,0,6.2C351.3,572.4,351.3,566.2,355.3,566.2z M356.7,557.1c-4,0-4-6.2,0-6.2C360.7,550.9,360.7,557.1,356.7,557.1z
        M363.8,574.4c0.1-0.1,0.2-0.2,0.3-0.3c1.2-1.2,3.2-1.1,4.4,0c1.2,1.1,1.1,3.2,0,4.4l-0.3,0.3c-1.2,1.2-3.2,1.1-4.4,0
        C362.6,577.7,362.7,575.6,363.8,574.4z M366.3,560.5c4,0,4,6.2,0,6.2C362.3,566.7,362.3,560.5,366.3,560.5z M366.3,592.4
        c-4,0-4-6.2,0-6.2C370.3,586.2,370.3,592.4,366.3,592.4z M368.9,604.2c-0.6,0.6-1.4,0.9-2.2,0.9c-0.8,0-1.7-0.4-2.2-0.9
        c-0.1-0.1-0.1-0.2-0.2-0.3c-0.6-0.6-1-1.3-1-2.3c-0.1-1.6,1.5-3.2,3.1-3.1c0.7,0,1.2,0.2,1.8,0.5c0.5,0.3,0.9,0.7,1.2,1.2
        c0.4,0.6,0.4,1.1,0.5,1.8C369.9,602.8,369.4,603.6,368.9,604.2z M367.3,554.4c-4,0-4-6.2,0-6.2
        C371.3,548.2,371.3,554.4,367.3,554.4z M496,327.9c-0.9,7.6-4,15-6.9,22.2c-4.6,11.2-9.6,22.3-14.8,33.3
        c-2.9,6.1-4.8,13.1-11.7,16.1c-2.3,1-5.9,1.8-7.8,0.7c-2.1-1.2-4.3-4.7-4.2-7c0.6-13.4,1.8-26.8,2.9-40.2c0.3-3-0.3-4.5-4.1-6.6
        c0.4,2.5,0.8,4.5,1,5.7c-1,2.8-2.1,5.1-2.5,7.5c-3.7,23.8-6.5,47.8-11.2,71.4c-3.9,19.4-14.9,35.9-26.5,51.6
        c-9.6,13-20.3,25.3-30.4,38c-5.7,7.1-13.2,10.9-21.6,14.4c-2.4,1,0.7-0.1-8.9,5c-0.2,0.1-2.1,0.8-2.1,0.8c0,0-0.9,0.3-1.5,0.5
        c-3,1.1-6.4,2.2-9.5,3.8c-17.6,8.8-34.8,6.7-52.7,0c-5.7-2.1-9.6-6.4-14.8-8.1c-12.3-4-20.3-13.7-29.7-21.4
        c-14.6-11.9-27.6-25.5-38.6-40.8c-9.5-13.1-17.3-27.2-20.4-43c-4-20.4-6.3-41.1-9.3-61.6c-1.8-12.5-3.3-25.1-5.1-37.6
        c-0.3-2-1.2-3.9-1.8-5.9c-0.6,0-1.2,0-1.8,0.1c-0.3,2.9-0.9,5.8-0.7,8.6c1.1,15.1,2.5,30.2,3.6,45.3c0.4,5,0.9,10,0.5,15
        c-0.2,2.2-1.8,5.6-3.6,6.2c-2.2,0.7-5.7-0.1-7.6-1.6c-6-4.6-10.1-10.8-13.1-17.9c-3.7-8.9-7-18.1-11.7-26.4
        c-10.3-18.1-11.3-36.9-6.8-56.6c1.5-6.5,2.7-13,4.3-19.4c1.2-5.1,7.7-10.6,12.8-10.2c5.8,0.4,9.2,4.8,11.1,9.6
        c3.9,9.8,9,18.6,16.1,26.5c2.8,3.1,4,8,4.9,12.3c5.2,24.4,20.4,34.6,45.2,34.8c9,0.1,18,0.1,26.9-0.4c15-0.9,28.6-5.2,37.4-18.5
        c5.7-8.6,8.5-18.3,10.3-28.4c1.5-8.1,2.2-16.5,8.2-23.1c6-6.6,16.7-6.5,21.4,1.1c2.9,4.6,4.4,10.2,6.1,15.5
        c3.3,10.6,5.5,21.5,9.5,31.7c4.1,10.4,13.2,15.9,23.9,18.8c14,3.8,28.4,3.6,42.7,2.8c8.2-0.5,16.6-1.5,24.4-4.1
        c13.4-4.5,19.1-16,23-28.8c1.9-6.3,4.9-12.3,7.3-18.4c0.4-1,0.9-2.3,1.2-3.4c1.2-3.2,2.5-4.4,3.4-8.1c0.5-2,0.8-4.6,0.7-7
        c-0.3-5.8,6.6-14.6,12.5-15.7c5.2-0.9,12.2,3.7,13.9,9.9C494.2,293.5,498,310.5,496,327.9z"></path> <path d="M418.7,402.6c-5.9,24.7-24.4,38.5-50.1,36.8c-17.3-1.2-33.8-5.5-48.4-15.2c-3.2-2.1-6-4.7-9.3-7.4
        c-10.9,12-25.3,17.4-40.5,20.8c-13.9,3.2-27.9,5.3-41.6-1c-15-6.8-22.5-19.3-25.6-35c2.4,2.6,4.4,5.6,7.2,7.6
        c8.4,6.3,17.9,5.8,26.5,1.5c10.5-5.3,20.5-11.6,30-18.5c7.1-5.1,14.6-8.5,22.9-10.4c5.9-1.4,11.6,0.3,16.6,3.6
        c3.6,2.3,6.4,2.3,10.4-0.3c5.9-4,12.8-5,20.1-2.6c10.6,3.6,19.5,9.9,27.9,16.9c8.4,7,18.2,10.8,28.2,14.3c4,1.4,9.5,1.9,13,0.1
        C411,411.3,414.7,406.3,418.7,402.6z"></path> <path d="M134.2,312.5c-3.9,12.2,5.2,23.1,3,34.5c-0.5,0.1-1.1,0.3-1.6,0.4c-0.7-1-1.6-1.9-1.9-3c-3.5-12.8-7.4-25.5-6.4-39.1
        c0.2-2.8,0.6-5.6,1.3-8.3c1.8-6.4,8.6-8.4,13-3.4c3.3,3.8,5.9,8.5,7.4,13.3c2.1,6.5-1.9,9.8-8.4,7.8
        C138.7,314.2,136.8,313.5,134.2,312.5z"></path> <path d="M479.1,344c1.3-6.8,2.6-13.6,3.7-20.4c0.5-3.1,0.8-6.3,0.8-9.4c-0.1-3.3-1.4-5.1-5.1-2.9c-1.5,0.9-3.3,1.1-5.5,1.7
        c0.8-6.7,1.3-12.8,2.4-18.7c0.2-1.3,2.4-3,3.8-3.1c1.8-0.2,4.7,0.5,5.6,1.8c1.8,2.6,3.3,5.9,3.6,9c1.5,14.1-2.5,27.3-6.5,40.6
        c-0.2,0.7-0.9,1.3-1.4,1.9C480,344.3,479.6,344.1,479.1,344z"></path> <path d="M149.8,322.7c0.3,1.2,0.6,2.4,0.8,3.6c1.1,6.1,2.2,12.3,3.4,18.4c0.4,2.3,1.4,4.5,1.6,6.8c0.4,3.6,1.2,7.7-3.6,9.1
        c-3.8,1-8.2-2.3-9.9-6.6c-2.8-7.3-1.7-14.4,0.8-21.4c1.3-3.6,3.2-6.9,4.9-10.4C148.5,322.4,149.2,322.6,149.8,322.7z"></path> <path d="M468.5,321.7c5.5,9.3,8.3,18.2,6,28.2c-0.4,1.9-1.3,4.2-2.7,5.2c-2.1,1.5-4.9,2-7.4,3c-0.7-2.4-2.4-4.9-2.1-7.1
        C464,341.5,466.2,332.1,468.5,321.7z"></path> <path d="M461.3,382.5c6.2-3.6,8.6-8.3,10.2-13.7C468.5,373.2,460.2,373.4,461.3,382.5z"></path> <path d="M154.4,386.3c-6-3.6-8.3-8.3-9.9-13.7C147.5,377,155.5,377.3,154.4,386.3z"></path></g></svg>