
<svg viewBox="0 0 150 187" fill="none" xmlns="http://www.w3.org/2000/svg"
    class="w-60 sm:w-full lg:w-60 2xl:w-full 3xl:w-96 -mb-2 mt-5">
    <path
        d="M148.4 52.7C148 51.5 147.9 50.4 147.8 49.6C136.3 20.7 108.6 0.400024 76.0999 0.400024C41.6999 0.400024 12.4999 23.3 2.49995 55H2.89995C2.89995 55 -6.30005 78.8 9.69995 90.5C25.6999 102.1 26.1999 102.1 25.0999 111C23.9999 119.9 27.6999 138.7 56.8999 144.4C86.0999 150.1 99.3999 144.6 99.3999 144.6L108 148.7L106.7 151.6C111.5 149.5 116.1 146.9 120.4 143.8L112 138.6C112 138.6 131.1 129.9 130.6 117.2C130 104.5 124.4 101.7 133.7 96.1C143.1 90.4 155.2 76.3 148.4 52.7Z"
        fill="#27272B"></path>
    <path
        d="M39.8999 180.5H111.7C111.7 180.5 109.1 154.3 104.3 150.2C99.4999 146.1 90.5999 143.3 90.5999 143.3L59.0999 144.3C59.0999 144.3 47.2999 147 44.9999 153.6C42.6999 160.2 39.8999 180.5 39.8999 180.5Z"
        fill="#6A7EB6"></path>
    <path
        d="M107 153.3C107 153.3 122.4 152 123 136.4C123.4 125.6 120.7 120.8 108.4 117.3C95.9999 113.8 100.4 98.2 99.1999 91C97.9999 83.8 91 79.7 87 79.2C82.9 78.6 72.8999 72 65.6999 76.5C58.4999 81 62.5999 90.4 62.5999 90.4C62.5999 90.4 55.3999 96 54.9999 102.8C54.5999 109.6 57.2999 115.9 58.6999 128.4C60.0999 140.9 58.3999 143.3 58.3999 143.3"
        fill="#121216"></path>
    <path
        d="M107 153.7C106.8 153.7 106.6 153.6 106.6 153.4C106.6 153.2 106.7 153 106.9 153C107.5 152.9 122 151.5 122.5 136.5C122.9 126.5 120.9 121.4 108.1 117.7C98.4 115 98.7 105.2 98.8 97.4C98.9 95 98.9 92.7 98.6 91C97.5 84.1 90.8 80.1 86.7 79.5C85.5 79.3 84 78.7 82.1 78C77.3 76.1 70.7 73.6 65.7 76.8C62.9 78.6 61.5 81.4 61.6 85.1C61.7 87.9 62.7 90.2 62.7 90.3C62.8 90.5 62.7 90.6 62.6 90.7C62.5 90.8 55.5 96.3 55.1 102.8C54.9 106.5 55.6 110.2 56.5 114.8C57.3 118.6 58.1 122.8 58.7 128.4C60.1 140.9 58.4 143.5 58.4 143.6C58.3 143.8 58 143.8 57.9 143.7C57.7 143.6 57.7 143.3 57.8 143.2C57.8 143.2 59.4 140.6 58 128.5C57.4 123 56.5 118.7 55.8 115C54.9 110.3 54.1 106.6 54.4 102.8C54.8 96.5 60.7 91.3 61.9 90.3C61.3 88.7 58.6 80.4 65.2 76.2C70.6 72.8 77.4 75.5 82.3 77.4C84.1 78.1 85.6 78.7 86.7 78.8C91.1 79.4 98.1 83.7 99.3 90.9C99.6 92.7 99.5 95 99.5 97.4C99.3 104.9 99.1 114.3 108.2 116.9C121.4 120.6 123.5 126.2 123.1 136.4C122.8 152.1 107.2 153.7 107 153.7C107.1 153.7 107 153.7 107 153.7Z"
        fill="white"></path>
    <path
        d="M70.1999 86.9C70.1999 86.9 61.4999 90.4 60.8999 100.3C60.2999 110.2 63.8999 120.4 71.8999 123.2C79.8999 126 89.1999 118.7 88.9999 103.5C88.9999 103.5 89.9999 97.8 87.5999 95.4C85.1999 93 74.9999 95 70.1999 86.9Z"
        fill="white"></path>
    <path
        d="M39.6999 180.3C39.3999 180.3 39.2999 180.1 39.2999 179.9L42.7999 157.5C43.2999 152.7 46.3999 148.5 50.7999 146.6L57.7999 143.3C57.9999 143.2 58.1999 143.3 58.2999 143.5C58.3999 143.7 58.2999 143.9 58.0999 144L51.0999 147.3C46.8999 149.2 43.9999 153.1 43.4999 157.7L39.9999 180.1C40.0999 180.2 39.8999 180.3 39.6999 180.3Z"
        fill="white"></path>
    <path
        d="M111.8 180.7C111.6 180.7 111.5 180.6 111.4 180.4L107.4 157.6C106.9 153 104 149.1 99.8 147.2L94.4 144.8C94.2 144.7 94.1 144.5 94.2 144.3C94.3 144.1 94.5 144 94.7 144.1L100.1 146.5C104.5 148.5 107.6 152.7 108.1 157.5L112.1 180.3C112.2 180.4 112.1 180.6 111.8 180.7C111.9 180.7 111.8 180.7 111.8 180.7Z"
        fill="white"></path>
    <path
        d="M68.7999 122.5V134C68.7999 137 66.9999 139.8 64.1999 141L56.8999 144.2L56.7999 144.3C56.7999 144.3 63.2999 151.3 75.8999 151.3C88.4999 151.3 94.5999 144.5 94.5999 144.5L94.9999 144.1L86.7999 140.8C83.9999 139.6 82.1999 136.8 82.1999 133.8V131.6"
        fill="white"></path>
    <path
        d="M65.2 110.6C61.5 110.6 58.5 107.6 58.5 103.9C58.5 100.2 61.5 97.2 65.2 97.2C68.9 97.2 71.9 100.2 71.9 103.9C71.9 107.6 68.9 110.6 65.2 110.6ZM65.2 97.6C61.8 97.6 59 100.4 59 103.8C59 107.2 61.8 110 65.2 110C68.6 110 71.4 107.2 71.4 103.8C71.4 100.4 68.6 97.6 65.2 97.6Z"
        fill="white"></path>
    <path
        d="M84.0999 110.6C80.3999 110.6 77.3999 107.6 77.3999 103.9C77.3999 100.2 80.3999 97.2 84.0999 97.2C87.7999 97.2 90.7999 100.2 90.7999 103.9C90.7999 107.6 87.7999 110.6 84.0999 110.6ZM84.0999 97.6C80.6999 97.6 77.8999 100.4 77.8999 103.8C77.8999 107.2 80.6999 110 84.0999 110C87.4999 110 90.2999 107.2 90.2999 103.8C90.3999 100.4 87.5999 97.6 84.0999 97.6Z"
        fill="white"></path>
    <path
        d="M65.1999 110.8C63.7999 110.8 62.3999 110.4 61.2999 109.6L61.8999 108.8C62.8999 109.5 63.9999 109.8 65.1999 109.8C68.4999 109.8 71.1999 107.1 71.1999 103.8C71.1999 100.5 68.4999 97.8 65.1999 97.8C63.7999 97.8 62.5999 98.2 61.4999 99.1L60.8999 98.3C62.0999 97.3 63.5999 96.8 65.1999 96.8C69.0999 96.8 72.1999 99.9 72.1999 103.8C72.1999 107.7 68.9999 110.8 65.1999 110.8Z"
        fill="#121216"></path>
    <path
        d="M84.1 110.8C80.2 110.8 77.1 107.7 77.1 103.8C77.1 99.9 80.2 96.8 84.1 96.8C86.2 96.8 88.2 97.8 89.5 99.4L88.7 100C87.6 98.6 85.9 97.8 84 97.8C80.7 97.8 78 100.5 78 103.8C78 107.1 80.7 109.8 84 109.8C85.5 109.8 86.9 109.2 88 108.2L88.7 108.9C87.6 110.2 85.9 110.8 84.1 110.8Z"
        fill="#121216"></path>
    <path
        d="M74.8 116.2C72.3 116.2 70.4 115.4 70.3 115.4C70.2 115.3 70.1 115.2 70.2 115.1C70.3 115 70.4 114.9 70.5 115C70.5 115 74.8 116.8 79.2 114.9C79.3 114.8 79.5 114.9 79.5 115C79.5 115.1 79.5 115.3 79.4 115.3C77.8 116 76.1 116.2 74.8 116.2Z"
        fill="white"></path>
    <path
        d="M76.9999 103.8C74.5999 102.6 72.2 103.8 72.2 103.8L71.7 102.9C71.8 102.8 74.4999 101.5 77.3999 102.9L76.9999 103.8Z"
        fill="#121216"></path>
    <path d="M0.699951 52.9L5.79995 68.2L26.4 53.2L0.699951 52.9Z" fill="#6A7EB6"></path>
    <path
        d="M8.59995 70.7H8.49995C8.39995 70.7 8.29995 70.6 8.29995 70.5L3.19995 55.2C3.19995 55.1 3.19995 55 3.29995 54.9C3.39995 54.8 3.49995 54.8 3.59995 54.7L29.2 55.1C29.4 55.1 29.4999 55.2 29.5999 55.4C29.6999 55.6 29.6 55.7 29.5 55.8L8.79995 70.6C8.79995 70.7 8.69995 70.7 8.59995 70.7ZM3.99995 55.4L8.79995 69.7L28 55.7L3.99995 55.4Z"
        fill="#FCFCFC"></path>
    <path d="M113.7 15.9L106.1 12.1L104 25.4L113.7 15.9Z" fill="#6A7EB6"></path>
    <path d="M138.5 46L132.7 44.8L128.7 49.2L130.6 54.8L136.4 56L140.4 51.6L138.5 46Z" fill="white"></path>
    <path
        d="M15.5 48.5H15.4C15.3 48.4 15.2 48.3 15.3 48.2C26.2 24.9 49.8 9.90002 75.5 9.90002C97.7 9.90002 118.3 20.9 130.7 39.4C130.8 39.5 130.7 39.7 130.6 39.7C130.5 39.8 130.3 39.7 130.3 39.6C118 21.3 97.5 10.4 75.5 10.4C50 10.4 26.6 25.3 15.8 48.4C15.7 48.5 15.6 48.5 15.5 48.5Z"
        fill="white"></path>
    <path
        d="M126.3 118.9C126.2 118.9 126.2 118.9 126.1 118.8C126 118.7 126 118.6 126.1 118.4C136 106.6 141.4 91.6 141.4 76.2C141.4 71.2 140.8 66.2 139.7 61.4C139.7 61.3 139.8 61.1 139.9 61.1C140 61.1 140.2 61.2 140.2 61.3C141.3 66.2 141.9 71.2 141.9 76.2C141.9 91.7 136.4 106.8 126.5 118.7C126.5 118.9 126.4 118.9 126.3 118.9Z"
        fill="white"></path>
    <path
        d="M47.5 136.5H47.4C41.9 133.9 36.8 130.6 32.2 126.7C32.1 126.6 32.1 126.5 32.2 126.3C32.3 126.2 32.4 126.2 32.6 126.3C37.2 130.2 42.2 133.5 47.7 136C47.8 136.1 47.9 136.2 47.8 136.3C47.7 136.5 47.6 136.5 47.5 136.5Z"
        fill="white"></path>
    <path
        d="M21.1 114.3C21 114.3 20.9 114.3 20.9 114.2C13.1 103.1 9 90 9 76.3C9 76.2 9.1 76.1 9.2 76.1C9.3 76.1 9.4 76.2 9.4 76.3C9.4 89.8 13.5 102.8 21.2 113.9C21.3 114 21.3 114.2 21.1 114.2C21.2 114.3 21.2 114.3 21.1 114.3Z"
        fill="white"></path>
    <path
        d="M57.4999 21C57.4999 21.1 57.4999 21.1 57.4999 21C55.6999 24.7 57.2999 29.1 60.8999 30.9C64.5999 32.6 68.8999 31.1 70.6999 27.4V27.3L57.4999 21Z"
        fill="white"></path>
    <path
        d="M102.8 55.7C102.7 55.7 102.6 55.7 102.5 55.6L97.8 51.7C97.6 51.5 97.6 51.2 97.7 51C97.9 50.8 98.2 50.8 98.4 50.9L103.1 54.8C103.3 55 103.3 55.3 103.2 55.5C103.1 55.7 102.9 55.7 102.8 55.7Z"
        fill="white"></path>
    <path
        d="M98.5 56.1C98.4 56.1 98.3 56.1 98.2 56C98 55.8 98 55.5 98.1 55.3L102 50.6C102.2 50.4 102.5 50.4 102.7 50.5C102.9 50.7 102.9 51 102.8 51.2L98.9 55.9C98.8 56.1 98.7 56.1 98.5 56.1Z"
        fill="white"></path>
    <path
        d="M32.8 95.7C32.7 95.7 32.6 95.7 32.6 95.6L28.9 93.6C28.7 93.5 28.6 93.2 28.7 92.9L30.9 89C31 88.8 31.3 88.7 31.6 88.8C31.8 88.9 31.9 89.2 31.8 89.5L29.9 93L33.1 94.8C33.3 94.9 33.4 95.2 33.3 95.5C33.2 95.6 33 95.7 32.8 95.7Z"
        fill="white"></path>
    <path
        d="M38 94.1C37.9 94.1 37.8 94.1 37.8 94C37.6 93.9 37.5 93.6 37.6 93.3L39.4 90.1L35.9 88.2C35.7 88.1 35.6 87.8 35.7 87.5C35.8 87.3 36.1 87.2 36.4 87.3L40.3 89.5C40.4 89.6 40.5 89.7 40.5 89.8C40.5 89.9 40.5 90.1 40.5 90.2L38.5 93.9C38.3 94 38.1 94.1 38 94.1Z"
        fill="white"></path>
    <path
        d="M38.5 72.6C37.2 72.6 36.1 71.5001 36.1 70.2001C36.1 68.9001 37.2 67.8 38.5 67.8C39.8 67.8 40.9 68.9001 40.9 70.2001C40.9 71.5001 39.8 72.6 38.5 72.6ZM38.5 68.4C37.5 68.4 36.6 69.2 36.6 70.3C36.6 71.4 37.4 72.2001 38.5 72.2001C39.6 72.2001 40.4 71.4 40.4 70.3C40.4 69.2 39.5 68.4 38.5 68.4Z"
        fill="white"></path>
    <path
        d="M45 54.7C43.7 54.7 42.6 53.6 42.6 52.3C42.6 51 43.7 49.9 45 49.9C46.3 49.9 47.4 51 47.4 52.3C47.4 53.6 46.3 54.7 45 54.7ZM45 50.5C44 50.5 43.1 51.3 43.1 52.4C43.1 53.5 43.9 54.3 45 54.3C46.1 54.3 46.9 53.4 46.9 52.4C46.9 51.4 46.1 50.5 45 50.5Z"
        fill="white"></path>
    <path
        d="M58.1999 62.5C56.8999 62.5 55.7999 61.4 55.7999 60.1C55.7999 58.8 56.8999 57.7 58.1999 57.7C59.4999 57.7 60.5999 58.8 60.5999 60.1C60.5999 61.4 59.4999 62.5 58.1999 62.5ZM58.1999 58.3C57.1999 58.3 56.2999 59.1 56.2999 60.2C56.2999 61.3 57.0999 62.1 58.1999 62.1C59.2999 62.1 60.0999 61.3 60.0999 60.2C60.0999 59.1 59.1999 58.3 58.1999 58.3Z"
        fill="white"></path>
    <path
        d="M67.4 51.8C66.1 51.8 65 50.7 65 49.4C65 48.1 66.1 47 67.4 47C68.7 47 69.8 48.1 69.8 49.4C69.8 50.7 68.7 51.8 67.4 51.8ZM67.4 47.6C66.4 47.6 65.5 48.4 65.5 49.5C65.5 50.6 66.3 51.4 67.4 51.4C68.5 51.4 69.3 50.6 69.3 49.5C69.3 48.4 68.4 47.6 67.4 47.6Z"
        fill="white"></path>
    <path
        d="M39.2999 68.4C39.0999 68.3 38.9999 68.2 39.0999 68.1L44.1999 54.4C44.1999 54.3 44.3999 54.2 44.4999 54.3C44.5999 54.3 44.6999 54.5 44.5999 54.6L39.4999 68.3C39.4999 68.3 39.3999 68.4 39.2999 68.4Z"
        fill="white"></path>
    <path
        d="M56.2999 59.3H56.1999L46.5999 53.9C46.4999 53.8 46.3999 53.7 46.4999 53.6C46.5999 53.5 46.6999 53.4 46.7999 53.5L56.3999 58.9C56.4999 59 56.5999 59.1 56.4999 59.2C56.4999 59.3 56.3999 59.3 56.2999 59.3Z"
        fill="white"></path>
    <path
        d="M59.7999 59C59.6999 59 59.6999 59 59.5999 58.9C59.4999 58.8 59.4999 58.7 59.5999 58.5L65.9999 50.9C66.0999 50.8 66.1999 50.8 66.3999 50.9C66.4999 51 66.4999 51.1 66.3999 51.3L59.9999 58.9C59.8999 59 59.8999 59 59.7999 59Z"
        fill="white"></path>
    <path
        d="M117.9 89.5L108.1 83.7L113.9 73.9L123.7 79.7L117.9 89.5ZM109.5 83.3L117.6 88.1L122.4 80L114.3 75.2L109.5 83.3Z"
        fill="#6A7EB6"></path>
    <path d="M122.7 79.7084L109.276 82.9031L109.507 83.8759L122.932 80.6812L122.7 79.7084Z" fill="#6A7EB6"></path>
    <path d="M114.708 75.0119L113.746 75.2841L117.502 88.5624L118.464 88.2902L114.708 75.0119Z" fill="#6A7EB6"></path>
    <path
        d="M84.8999 34.2C85.8388 34.2 86.5999 33.4389 86.5999 32.5C86.5999 31.5612 85.8388 30.8 84.8999 30.8C83.9611 30.8 83.2 31.5612 83.2 32.5C83.2 33.4389 83.9611 34.2 84.8999 34.2Z"
        fill="#6A7EB6"></path>
    <path
        d="M41.4 120.8C42.4493 120.8 43.3 119.949 43.3 118.9C43.3 117.851 42.4493 117 41.4 117C40.3507 117 39.5 117.851 39.5 118.9C39.5 119.949 40.3507 120.8 41.4 120.8Z"
        fill="#6A7EB6"></path>
</svg>